<mxfile host="Electron" modified="2023-11-23T15:24:13.796Z" agent="Mozilla/5.0 (Windows NT 10.0; Win64; x64) AppleWebKit/537.36 (KHTML, like Gecko) draw.io/22.1.2 Chrome/114.0.5735.289 Electron/25.9.4 Safari/537.36" etag="hYU4SjKP3AyifuDBml9O" version="22.1.2" type="device">
  <diagram name="Pagina-1" id="6jStNF-pMENzdW7jOkbE">
    <mxGraphModel dx="2368" dy="418" grid="1" gridSize="10" guides="1" tooltips="1" connect="1" arrows="1" fold="1" page="1" pageScale="1" pageWidth="827" pageHeight="1169" math="0" shadow="0">
      <root>
        <mxCell id="0" />
        <mxCell id="1" parent="0" />
        <mxCell id="Ioz2Z54Z-l2nRbUJ65sq-1" value="Giocatore" style="rounded=0;whiteSpace=wrap;html=1;" vertex="1" parent="1">
          <mxGeometry x="-1520" y="180" width="60" height="20" as="geometry" />
        </mxCell>
        <mxCell id="Ioz2Z54Z-l2nRbUJ65sq-2" value="&lt;font style=&quot;font-size: 11px;&quot;&gt;Nome&lt;/font&gt;" style="ellipse;whiteSpace=wrap;html=1;" vertex="1" parent="1">
          <mxGeometry x="-1630" y="180" width="50" height="20" as="geometry" />
        </mxCell>
        <mxCell id="Ioz2Z54Z-l2nRbUJ65sq-3" value="&lt;font style=&quot;font-size: 11px;&quot;&gt;Cognome&lt;/font&gt;" style="ellipse;whiteSpace=wrap;html=1;" vertex="1" parent="1">
          <mxGeometry x="-1635" y="150" width="60" height="20" as="geometry" />
        </mxCell>
        <mxCell id="Ioz2Z54Z-l2nRbUJ65sq-4" value="&lt;font style=&quot;font-size: 10px;&quot;&gt;Data di nascita&lt;/font&gt;" style="ellipse;whiteSpace=wrap;html=1;" vertex="1" parent="1">
          <mxGeometry x="-1615" y="127.5" width="80" height="22.5" as="geometry" />
        </mxCell>
        <mxCell id="Ioz2Z54Z-l2nRbUJ65sq-5" value="Piede" style="ellipse;whiteSpace=wrap;html=1;" vertex="1" parent="1">
          <mxGeometry x="-1555" y="105" width="60" height="15" as="geometry" />
        </mxCell>
        <mxCell id="Ioz2Z54Z-l2nRbUJ65sq-8" value="" style="endArrow=none;html=1;rounded=0;exitX=1;exitY=0.5;exitDx=0;exitDy=0;entryX=0;entryY=0.5;entryDx=0;entryDy=0;" edge="1" parent="1" source="Ioz2Z54Z-l2nRbUJ65sq-2" target="Ioz2Z54Z-l2nRbUJ65sq-1">
          <mxGeometry width="50" height="50" relative="1" as="geometry">
            <mxPoint x="-1570" y="237.5" as="sourcePoint" />
            <mxPoint x="-1520" y="187.5" as="targetPoint" />
          </mxGeometry>
        </mxCell>
        <mxCell id="Ioz2Z54Z-l2nRbUJ65sq-9" value="" style="endArrow=none;html=1;rounded=0;entryX=1;entryY=1;entryDx=0;entryDy=0;exitX=0;exitY=0;exitDx=0;exitDy=0;" edge="1" parent="1" source="Ioz2Z54Z-l2nRbUJ65sq-1" target="Ioz2Z54Z-l2nRbUJ65sq-3">
          <mxGeometry width="50" height="50" relative="1" as="geometry">
            <mxPoint x="-1510" y="180" as="sourcePoint" />
            <mxPoint x="-1460" y="130" as="targetPoint" />
          </mxGeometry>
        </mxCell>
        <mxCell id="Ioz2Z54Z-l2nRbUJ65sq-10" value="" style="endArrow=none;html=1;rounded=0;entryX=0.5;entryY=1;entryDx=0;entryDy=0;exitX=0.25;exitY=0;exitDx=0;exitDy=0;" edge="1" parent="1" source="Ioz2Z54Z-l2nRbUJ65sq-1" target="Ioz2Z54Z-l2nRbUJ65sq-4">
          <mxGeometry width="50" height="50" relative="1" as="geometry">
            <mxPoint x="-1490" y="180" as="sourcePoint" />
            <mxPoint x="-1440" y="130" as="targetPoint" />
          </mxGeometry>
        </mxCell>
        <mxCell id="Ioz2Z54Z-l2nRbUJ65sq-11" value="" style="endArrow=none;html=1;rounded=0;entryX=0.5;entryY=1;entryDx=0;entryDy=0;exitX=0.5;exitY=0;exitDx=0;exitDy=0;" edge="1" parent="1" source="Ioz2Z54Z-l2nRbUJ65sq-1" target="Ioz2Z54Z-l2nRbUJ65sq-5">
          <mxGeometry width="50" height="50" relative="1" as="geometry">
            <mxPoint x="-1460" y="180" as="sourcePoint" />
            <mxPoint x="-1420" y="130" as="targetPoint" />
          </mxGeometry>
        </mxCell>
        <mxCell id="Ioz2Z54Z-l2nRbUJ65sq-14" value="&lt;font style=&quot;font-size: 11px;&quot;&gt;Ruolo&lt;/font&gt;" style="ellipse;shape=doubleEllipse;whiteSpace=wrap;html=1;" vertex="1" parent="1">
          <mxGeometry x="-1520" y="80" width="60" height="20" as="geometry" />
        </mxCell>
        <mxCell id="Ioz2Z54Z-l2nRbUJ65sq-15" value="" style="endArrow=none;html=1;rounded=0;entryX=0.5;entryY=1;entryDx=0;entryDy=0;exitX=0.5;exitY=0;exitDx=0;exitDy=0;" edge="1" parent="1" source="Ioz2Z54Z-l2nRbUJ65sq-1" target="Ioz2Z54Z-l2nRbUJ65sq-14">
          <mxGeometry width="50" height="50" relative="1" as="geometry">
            <mxPoint x="-1470" y="180" as="sourcePoint" />
            <mxPoint x="-1430" y="140" as="targetPoint" />
          </mxGeometry>
        </mxCell>
        <mxCell id="Ioz2Z54Z-l2nRbUJ65sq-17" value="&lt;font style=&quot;font-size: 11px;&quot;&gt;Caratteristiche&lt;/font&gt;" style="ellipse;shape=doubleEllipse;whiteSpace=wrap;html=1;" vertex="1" parent="1">
          <mxGeometry x="-1480" y="100" width="90" height="30" as="geometry" />
        </mxCell>
        <mxCell id="Ioz2Z54Z-l2nRbUJ65sq-19" value="" style="endArrow=none;html=1;rounded=0;entryX=0.5;entryY=1;entryDx=0;entryDy=0;exitX=0.5;exitY=0;exitDx=0;exitDy=0;" edge="1" parent="1" source="Ioz2Z54Z-l2nRbUJ65sq-1" target="Ioz2Z54Z-l2nRbUJ65sq-17">
          <mxGeometry width="50" height="50" relative="1" as="geometry">
            <mxPoint x="-1460" y="192.5" as="sourcePoint" />
            <mxPoint x="-1410" y="142.5" as="targetPoint" />
          </mxGeometry>
        </mxCell>
        <mxCell id="Ioz2Z54Z-l2nRbUJ65sq-20" value="" style="endArrow=none;html=1;rounded=0;exitX=0.5;exitY=0;exitDx=0;exitDy=0;" edge="1" parent="1" source="Ioz2Z54Z-l2nRbUJ65sq-4" target="Ioz2Z54Z-l2nRbUJ65sq-21">
          <mxGeometry width="50" height="50" relative="1" as="geometry">
            <mxPoint x="-1540" y="120" as="sourcePoint" />
            <mxPoint x="-1570" y="100" as="targetPoint" />
          </mxGeometry>
        </mxCell>
        <mxCell id="Ioz2Z54Z-l2nRbUJ65sq-21" value="&lt;font style=&quot;font-size: 11px;&quot;&gt;Giorno&lt;/font&gt;" style="ellipse;whiteSpace=wrap;html=1;" vertex="1" parent="1">
          <mxGeometry x="-1650" y="100" width="40" height="20" as="geometry" />
        </mxCell>
        <mxCell id="Ioz2Z54Z-l2nRbUJ65sq-22" value="" style="endArrow=none;html=1;rounded=0;exitX=0.5;exitY=0;exitDx=0;exitDy=0;" edge="1" parent="1" source="Ioz2Z54Z-l2nRbUJ65sq-4" target="Ioz2Z54Z-l2nRbUJ65sq-23">
          <mxGeometry width="50" height="50" relative="1" as="geometry">
            <mxPoint x="-1550" y="120" as="sourcePoint" />
            <mxPoint x="-1580" y="90" as="targetPoint" />
          </mxGeometry>
        </mxCell>
        <mxCell id="Ioz2Z54Z-l2nRbUJ65sq-23" value="&lt;font style=&quot;font-size: 11px;&quot;&gt;Mese&lt;/font&gt;" style="ellipse;whiteSpace=wrap;html=1;" vertex="1" parent="1">
          <mxGeometry x="-1630" y="80" width="40" height="20" as="geometry" />
        </mxCell>
        <mxCell id="Ioz2Z54Z-l2nRbUJ65sq-24" value="" style="endArrow=none;html=1;rounded=0;exitX=0.5;exitY=0;exitDx=0;exitDy=0;" edge="1" parent="1" source="Ioz2Z54Z-l2nRbUJ65sq-4" target="Ioz2Z54Z-l2nRbUJ65sq-25">
          <mxGeometry width="50" height="50" relative="1" as="geometry">
            <mxPoint x="-1540" y="120" as="sourcePoint" />
            <mxPoint x="-1540" y="90" as="targetPoint" />
          </mxGeometry>
        </mxCell>
        <mxCell id="Ioz2Z54Z-l2nRbUJ65sq-25" value="&lt;font style=&quot;font-size: 11px;&quot;&gt;Anno&lt;/font&gt;" style="ellipse;whiteSpace=wrap;html=1;" vertex="1" parent="1">
          <mxGeometry x="-1590" y="85" width="35" height="20" as="geometry" />
        </mxCell>
        <mxCell id="Ioz2Z54Z-l2nRbUJ65sq-36" value="&lt;font style=&quot;font-size: 11px;&quot;&gt;Nome&lt;/font&gt;" style="ellipse;whiteSpace=wrap;html=1;" vertex="1" parent="1">
          <mxGeometry x="-1400" y="82.5" width="65" height="20" as="geometry" />
        </mxCell>
        <mxCell id="Ioz2Z54Z-l2nRbUJ65sq-38" value="&lt;font style=&quot;font-size: 11px;&quot;&gt;NazionalitÃ &lt;/font&gt;" style="ellipse;whiteSpace=wrap;html=1;" vertex="1" parent="1">
          <mxGeometry x="-1400" y="50" width="70" height="20" as="geometry" />
        </mxCell>
        <mxCell id="Ioz2Z54Z-l2nRbUJ65sq-49" value="Militanza" style="ellipse;shape=doubleEllipse;whiteSpace=wrap;html=1;" vertex="1" parent="1">
          <mxGeometry x="-1280" y="130" width="80" height="30" as="geometry" />
        </mxCell>
        <mxCell id="Ioz2Z54Z-l2nRbUJ65sq-50" value="" style="endArrow=none;html=1;rounded=0;entryX=0;entryY=0.5;entryDx=0;entryDy=0;exitX=1;exitY=0.5;exitDx=0;exitDy=0;" edge="1" parent="1" source="Ioz2Z54Z-l2nRbUJ65sq-64" target="Ioz2Z54Z-l2nRbUJ65sq-49">
          <mxGeometry width="50" height="50" relative="1" as="geometry">
            <mxPoint x="-1240" y="180" as="sourcePoint" />
            <mxPoint x="-1360" y="190" as="targetPoint" />
            <Array as="points" />
          </mxGeometry>
        </mxCell>
        <mxCell id="Ioz2Z54Z-l2nRbUJ65sq-51" value="" style="endArrow=none;html=1;rounded=0;exitX=0;exitY=0;exitDx=0;exitDy=0;" edge="1" parent="1" source="Ioz2Z54Z-l2nRbUJ65sq-49" target="Ioz2Z54Z-l2nRbUJ65sq-52">
          <mxGeometry width="50" height="50" relative="1" as="geometry">
            <mxPoint x="-1250" y="130" as="sourcePoint" />
            <mxPoint x="-1280" y="110" as="targetPoint" />
          </mxGeometry>
        </mxCell>
        <mxCell id="Ioz2Z54Z-l2nRbUJ65sq-52" value="Squadra" style="ellipse;whiteSpace=wrap;html=1;" vertex="1" parent="1">
          <mxGeometry x="-1330" y="100" width="60" height="20" as="geometry" />
        </mxCell>
        <mxCell id="Ioz2Z54Z-l2nRbUJ65sq-53" value="" style="endArrow=none;html=1;rounded=0;exitX=0.5;exitY=0;exitDx=0;exitDy=0;" edge="1" parent="1" source="Ioz2Z54Z-l2nRbUJ65sq-49" target="Ioz2Z54Z-l2nRbUJ65sq-54">
          <mxGeometry width="50" height="50" relative="1" as="geometry">
            <mxPoint x="-1250" y="127.5" as="sourcePoint" />
            <mxPoint x="-1240" y="110" as="targetPoint" />
          </mxGeometry>
        </mxCell>
        <mxCell id="Ioz2Z54Z-l2nRbUJ65sq-54" value="Periodo" style="ellipse;whiteSpace=wrap;html=1;" vertex="1" parent="1">
          <mxGeometry x="-1270" y="90" width="60" height="20" as="geometry" />
        </mxCell>
        <mxCell id="Ioz2Z54Z-l2nRbUJ65sq-55" value="" style="endArrow=none;html=1;rounded=0;exitX=0.5;exitY=0;exitDx=0;exitDy=0;" edge="1" parent="1" source="Ioz2Z54Z-l2nRbUJ65sq-54" target="Ioz2Z54Z-l2nRbUJ65sq-56">
          <mxGeometry width="50" height="50" relative="1" as="geometry">
            <mxPoint x="-1250" y="90" as="sourcePoint" />
            <mxPoint x="-1260" y="70" as="targetPoint" />
          </mxGeometry>
        </mxCell>
        <mxCell id="Ioz2Z54Z-l2nRbUJ65sq-56" value="&lt;font style=&quot;font-size: 11px;&quot;&gt;Inizio&lt;/font&gt;" style="ellipse;whiteSpace=wrap;html=1;" vertex="1" parent="1">
          <mxGeometry x="-1290" y="60" width="40" height="20" as="geometry" />
        </mxCell>
        <mxCell id="Ioz2Z54Z-l2nRbUJ65sq-57" value="" style="endArrow=none;html=1;rounded=0;" edge="1" parent="1" target="Ioz2Z54Z-l2nRbUJ65sq-58">
          <mxGeometry width="50" height="50" relative="1" as="geometry">
            <mxPoint x="-1240" y="90" as="sourcePoint" />
            <mxPoint x="-1230" y="80" as="targetPoint" />
          </mxGeometry>
        </mxCell>
        <mxCell id="Ioz2Z54Z-l2nRbUJ65sq-58" value="&lt;font style=&quot;font-size: 11px;&quot;&gt;Fine&lt;/font&gt;" style="ellipse;whiteSpace=wrap;html=1;" vertex="1" parent="1">
          <mxGeometry x="-1230" y="60" width="40" height="22.5" as="geometry" />
        </mxCell>
        <mxCell id="Ioz2Z54Z-l2nRbUJ65sq-59" value="&lt;font style=&quot;font-size: 11px;&quot;&gt;Partite giocate&lt;/font&gt;" style="ellipse;whiteSpace=wrap;html=1;" vertex="1" parent="1">
          <mxGeometry x="-1200" y="97.5" width="110" height="25" as="geometry" />
        </mxCell>
        <mxCell id="Ioz2Z54Z-l2nRbUJ65sq-60" value="" style="endArrow=none;html=1;rounded=0;exitX=0.5;exitY=1;exitDx=0;exitDy=0;entryX=1;entryY=0;entryDx=0;entryDy=0;" edge="1" parent="1" source="Ioz2Z54Z-l2nRbUJ65sq-59" target="Ioz2Z54Z-l2nRbUJ65sq-49">
          <mxGeometry width="50" height="50" relative="1" as="geometry">
            <mxPoint x="-1320" y="190" as="sourcePoint" />
            <mxPoint x="-1270" y="140" as="targetPoint" />
          </mxGeometry>
        </mxCell>
        <mxCell id="Ioz2Z54Z-l2nRbUJ65sq-61" value="&lt;font style=&quot;font-size: 11px;&quot;&gt;Goal segnati&lt;/font&gt;" style="ellipse;whiteSpace=wrap;html=1;" vertex="1" parent="1">
          <mxGeometry x="-1170" y="135" width="80" height="20" as="geometry" />
        </mxCell>
        <mxCell id="Ioz2Z54Z-l2nRbUJ65sq-62" value="" style="endArrow=none;html=1;rounded=0;entryX=0;entryY=0.5;entryDx=0;entryDy=0;exitX=1;exitY=0.5;exitDx=0;exitDy=0;" edge="1" parent="1" source="Ioz2Z54Z-l2nRbUJ65sq-49" target="Ioz2Z54Z-l2nRbUJ65sq-61">
          <mxGeometry width="50" height="50" relative="1" as="geometry">
            <mxPoint x="-1200" y="150" as="sourcePoint" />
            <mxPoint x="-1150" y="100" as="targetPoint" />
          </mxGeometry>
        </mxCell>
        <mxCell id="Ioz2Z54Z-l2nRbUJ65sq-63" value="" style="endArrow=none;html=1;rounded=0;exitX=0.5;exitY=0;exitDx=0;exitDy=0;" edge="1" parent="1" source="Ioz2Z54Z-l2nRbUJ65sq-1" target="Ioz2Z54Z-l2nRbUJ65sq-64">
          <mxGeometry width="50" height="50" relative="1" as="geometry">
            <mxPoint x="-1460" y="190" as="sourcePoint" />
            <mxPoint x="-1430" y="190" as="targetPoint" />
          </mxGeometry>
        </mxCell>
        <mxCell id="Ioz2Z54Z-l2nRbUJ65sq-64" value="Carriera" style="ellipse;whiteSpace=wrap;html=1;" vertex="1" parent="1">
          <mxGeometry x="-1420" y="130" width="47.5" height="30" as="geometry" />
        </mxCell>
        <mxCell id="Ioz2Z54Z-l2nRbUJ65sq-65" value="&lt;font style=&quot;font-size: 11px;&quot;&gt;Data di ritiro&lt;/font&gt;" style="ellipse;whiteSpace=wrap;html=1;" vertex="1" parent="1">
          <mxGeometry x="-1440" y="170" width="80" height="20" as="geometry" />
        </mxCell>
        <mxCell id="Ioz2Z54Z-l2nRbUJ65sq-66" value="" style="endArrow=none;html=1;rounded=0;exitX=1;exitY=0;exitDx=0;exitDy=0;entryX=0;entryY=0.5;entryDx=0;entryDy=0;" edge="1" parent="1" source="Ioz2Z54Z-l2nRbUJ65sq-1" target="Ioz2Z54Z-l2nRbUJ65sq-65">
          <mxGeometry width="50" height="50" relative="1" as="geometry">
            <mxPoint x="-1430" y="180" as="sourcePoint" />
            <mxPoint x="-1380" y="130" as="targetPoint" />
          </mxGeometry>
        </mxCell>
        <mxCell id="Ioz2Z54Z-l2nRbUJ65sq-68" value="Trofei" style="ellipse;whiteSpace=wrap;html=1;" vertex="1" parent="1">
          <mxGeometry x="-1335" y="30" width="70" height="20" as="geometry" />
        </mxCell>
        <mxCell id="Ioz2Z54Z-l2nRbUJ65sq-70" value="Trofei" style="ellipse;whiteSpace=wrap;html=1;" vertex="1" parent="1">
          <mxGeometry x="-1440" y="200" width="53.75" height="20" as="geometry" />
        </mxCell>
        <mxCell id="Ioz2Z54Z-l2nRbUJ65sq-71" value="" style="endArrow=none;html=1;rounded=0;entryX=1;entryY=0.5;entryDx=0;entryDy=0;exitX=0.5;exitY=0;exitDx=0;exitDy=0;" edge="1" parent="1" source="Ioz2Z54Z-l2nRbUJ65sq-70" target="Ioz2Z54Z-l2nRbUJ65sq-1">
          <mxGeometry width="50" height="50" relative="1" as="geometry">
            <mxPoint x="-1505" y="260" as="sourcePoint" />
            <mxPoint x="-1455" y="210" as="targetPoint" />
          </mxGeometry>
        </mxCell>
        <mxCell id="Ioz2Z54Z-l2nRbUJ65sq-72" value="" style="endArrow=none;html=1;rounded=0;entryX=0.5;entryY=1;entryDx=0;entryDy=0;exitX=0.5;exitY=0;exitDx=0;exitDy=0;" edge="1" parent="1" source="Ioz2Z54Z-l2nRbUJ65sq-52" target="Ioz2Z54Z-l2nRbUJ65sq-68">
          <mxGeometry width="50" height="50" relative="1" as="geometry">
            <mxPoint x="-1350" y="115" as="sourcePoint" />
            <mxPoint x="-1300" y="65" as="targetPoint" />
          </mxGeometry>
        </mxCell>
        <mxCell id="Ioz2Z54Z-l2nRbUJ65sq-73" value="" style="endArrow=none;html=1;rounded=0;entryX=1;entryY=1;entryDx=0;entryDy=0;exitX=0.5;exitY=0;exitDx=0;exitDy=0;" edge="1" parent="1" source="Ioz2Z54Z-l2nRbUJ65sq-52" target="Ioz2Z54Z-l2nRbUJ65sq-38">
          <mxGeometry width="50" height="50" relative="1" as="geometry">
            <mxPoint x="-1380" y="172.5" as="sourcePoint" />
            <mxPoint x="-1330" y="122.5" as="targetPoint" />
          </mxGeometry>
        </mxCell>
        <mxCell id="Ioz2Z54Z-l2nRbUJ65sq-74" value="" style="endArrow=none;html=1;rounded=0;entryX=1;entryY=1;entryDx=0;entryDy=0;exitX=0.5;exitY=0;exitDx=0;exitDy=0;" edge="1" parent="1" source="Ioz2Z54Z-l2nRbUJ65sq-52" target="Ioz2Z54Z-l2nRbUJ65sq-36">
          <mxGeometry width="50" height="50" relative="1" as="geometry">
            <mxPoint x="-1380" y="180" as="sourcePoint" />
            <mxPoint x="-1330" y="130" as="targetPoint" />
          </mxGeometry>
        </mxCell>
      </root>
    </mxGraphModel>
  </diagram>
</mxfile>
